<svg width="150" height="40" viewBox="0 0 150 40" fill="none" xmlns="http://www.w3.org/2000/svg">
<path d="M47.3063 24.4058V17.3123C47.3063 12.259 49.3518 9.4101 54.7691 9.4101H62.674C68.0913 9.4101 70.1367 12.259 70.1367 17.3123V24.4058C70.1367 29.4245 68.0913 32.2763 62.674 32.2763H54.7691C49.3518 32.2763 47.3063 29.4274 47.3063 24.4058ZM62.674 29.2C65.8555 29.2 67.0503 28.1641 67.0503 24.5036V17.2173C67.0503 13.5252 65.8863 12.4892 62.674 12.4892H54.7691C51.5875 12.4892 50.3927 13.5252 50.3927 17.2173V24.5036C50.3927 28.1641 51.6211 29.2 54.7691 29.2H62.674Z" fill="white"/>
<path d="M88.1515 32.2734H85.7899C85.4737 32.2734 85.2218 32.1756 85.0036 31.9166L79.2729 25.0504L73.5422 31.9166C73.3211 32.1756 73.0693 32.2734 72.7559 32.2734H70.3942C69.8598 32.2734 69.7003 31.8849 70.0472 31.4648L77.4149 22.8489L70.6125 14.8806C70.2655 14.4604 70.4222 14.072 70.9594 14.072H73.3211C73.6373 14.072 73.8892 14.1698 74.1074 14.4288L79.2729 20.6475L84.4383 14.4288C84.6594 14.1698 84.9112 14.072 85.2246 14.072H87.5863C88.1208 14.072 88.311 14.4604 87.9641 14.8806L81.1617 22.8489L88.4985 31.4648C88.8455 31.8849 88.6888 32.2734 88.1515 32.2734V32.2734Z" fill="white"/>
<path d="M106.888 21.2633V31.6604C106.888 32.0806 106.667 32.3079 106.259 32.3079H104.557C104.149 32.3079 103.928 32.0806 103.928 31.6604V21.0043C103.928 17.6691 103.234 16.9554 100.307 16.9554H95.8354C93.3785 16.9554 92.2453 17.5396 92.2453 21.0043V31.6259C92.2453 32.0461 92.0242 32.2734 91.6157 32.2734H89.9144C89.5058 32.2734 89.2848 32.0461 89.2848 31.6259V8.34246C89.2848 7.92231 89.5058 7.69498 89.9144 7.69498H91.6157C92.0242 7.69498 92.2453 7.92231 92.2453 8.34246V16.4403C92.9392 14.8547 94.3551 14.0748 97.2205 14.0748H100.368C105.626 14.0748 106.888 16.4403 106.888 21.2633V21.2633Z" fill="white"/>
<path d="M107.896 27.2547C107.896 23.7237 109.25 22.236 113.531 21.7497L121.341 20.8748C122.096 20.777 122.348 20.3568 122.348 19.5799C122.348 17.5079 121.749 16.9554 119.105 16.9554H109.941C109.533 16.9554 109.311 16.7281 109.311 16.3079V14.7223C109.311 14.3022 109.533 14.0748 109.941 14.0748H119.167C123.703 14.0748 125.309 15.7266 125.309 19.4187V31.6288C125.309 32.0489 125.088 32.2763 124.679 32.2763H122.978C122.569 32.2763 122.348 32.0489 122.348 31.6288V29.4907C121.528 31.4014 120.334 32.2763 116.869 32.2763H114.508C110.288 32.2763 107.896 30.7223 107.896 27.2576V27.2547ZM118.067 29.4561C121.341 29.4561 122.351 28.2907 122.351 25.2461V23.4648L114.007 24.3712C111.488 24.6302 110.89 25.2461 110.89 26.9957C110.89 28.5813 111.992 29.4561 114.511 29.4561H118.07H118.067Z" fill="white"/>
<path d="M127.265 11.4187V8.34246C127.265 7.92231 127.486 7.69498 127.894 7.69498H129.596C130.004 7.69498 130.225 7.92231 130.225 8.34246V11.4187C130.225 11.8389 130.004 12.0662 129.596 12.0662H127.894C127.486 12.0662 127.265 11.8389 127.265 11.4187ZM127.265 31.6288V14.7223C127.265 14.3022 127.486 14.0748 127.894 14.0748H129.596C130.004 14.0748 130.225 14.3022 130.225 14.7223V31.6288C130.225 32.0489 130.004 32.2763 129.596 32.2763H127.894C127.486 32.2763 127.265 32.0489 127.265 31.6288Z" fill="white"/>
<path d="M150 21.2633V31.6604C150 32.0806 149.779 32.3079 149.37 32.3079H147.669C147.261 32.3079 147.039 32.0806 147.039 31.6604V21.0043C147.039 17.6691 146.346 16.9554 143.449 16.9554H138.978C136.49 16.9554 135.357 17.5396 135.357 21.0043V31.6259C135.357 32.0461 135.136 32.2734 134.727 32.2734H133.026C132.618 32.2734 132.397 32.0461 132.397 31.6259V14.7223C132.397 14.3022 132.618 14.0748 133.026 14.0748H134.727C135.136 14.0748 135.357 14.3022 135.357 14.7223V16.4403C136.051 14.8547 137.498 14.0748 140.363 14.0748H143.48C148.738 14.0748 150 16.4403 150 21.2633V21.2633Z" fill="white"/>
<path d="M33.2985 11.4935H27.7161V5.7554H33.2985V11.4964V11.4935ZM38.8809 17.2345V11.4935H33.2985V17.2345H38.8809ZM27.7189 11.4935H22.1365V17.2345H27.7189V11.4935ZM38.8809 0.0143885H33.2985V5.7554H38.8809V0.0143885ZM22.1365 0.0143885V5.7554H27.7189V0.0143885H22.1365ZM33.2845 20C33.2845 27.8475 27.0781 34.2302 19.4474 34.2302C11.8168 34.2302 5.61038 27.8475 5.61038 20C5.61038 12.1525 11.8168 5.76978 19.4474 5.76978V0C8.72477 0 0 8.97266 0 20C0 31.0273 8.72477 40 19.4474 40C30.1701 40 38.8949 31.0273 38.8949 20H33.2845Z" fill="url(#paint0_linear_5604_186975)"/>
<defs>
<linearGradient id="paint0_linear_5604_186975" x1="38.8949" y1="20" x2="0" y2="20" gradientUnits="userSpaceOnUse">
<stop stop-color="#8C2EEF"/>
<stop offset="1" stop-color="#00AAFF"/>
</linearGradient>
</defs>
</svg>
